<svg xmlns="http://www.w3.org/2000/svg" viewBox="0 0 512 512" role="img" aria-labelledby="title desc">
  <title id="title">Distribuidora 87</title>
  <desc id="desc">Escudo azul y rojo con el texto Distribuidora y el numero 87.</desc>
  <defs>
    <linearGradient id="metal" x1="0" x2="1" y1="0" y2="1">
      <stop offset="0" stop-color="#f7f4e8"/>
      <stop offset="0.22" stop-color="#a69d89"/>
      <stop offset="0.48" stop-color="#fffbe9"/>
      <stop offset="0.72" stop-color="#807765"/>
      <stop offset="1" stop-color="#f2ead6"/>
    </linearGradient>
    <linearGradient id="metal-dark" x1="0" x2="1" y1="0" y2="1">
      <stop offset="0" stop-color="#5f584c"/>
      <stop offset="0.48" stop-color="#fbf7e8"/>
      <stop offset="1" stop-color="#2d2a25"/>
    </linearGradient>
    <linearGradient id="blue" x1="0" x2="1" y1="0" y2="1">
      <stop offset="0" stop-color="#102c86"/>
      <stop offset="0.55" stop-color="#0f1f5c"/>
      <stop offset="1" stop-color="#071342"/>
    </linearGradient>
    <linearGradient id="red" x1="0" x2="1" y1="0" y2="1">
      <stop offset="0" stop-color="#ec123c"/>
      <stop offset="0.52" stop-color="#c1122f"/>
      <stop offset="1" stop-color="#8d0820"/>
    </linearGradient>
    <radialGradient id="shine" cx="48%" cy="7%" r="70%">
      <stop offset="0" stop-color="#ffffff" stop-opacity="0.85"/>
      <stop offset="0.38" stop-color="#ffffff" stop-opacity="0.18"/>
      <stop offset="1" stop-color="#ffffff" stop-opacity="0"/>
    </radialGradient>
    <filter id="drop" x="-20%" y="-20%" width="140%" height="150%">
      <feDropShadow dx="0" dy="12" stdDeviation="13" flood-color="#000000" flood-opacity="0.34"/>
    </filter>
    <filter id="text-shadow" x="-20%" y="-20%" width="140%" height="150%">
      <feDropShadow dx="0" dy="3" stdDeviation="2" flood-color="#000000" flood-opacity="0.55"/>
    </filter>
    <pattern id="pattern" width="34" height="34" patternUnits="userSpaceOnUse" patternTransform="rotate(45)">
      <path d="M0 17h34M17 0v34" stroke="#ffffff" stroke-opacity="0.08" stroke-width="4"/>
    </pattern>
    <clipPath id="shield-clip">
      <path d="M95 128c45 10 96 10 161-14 65 24 116 24 161 14v126c0 107-58 183-161 224C153 437 95 361 95 254V128z"/>
    </clipPath>
  </defs>

  <rect width="512" height="512" fill="none"/>
  <g filter="url(#drop)">
    <path fill="url(#metal-dark)" d="M72 80h368v172c0 129-71 221-184 268C143 473 72 381 72 252V80z"/>
    <path fill="url(#metal)" d="M84 94h344v158c0 119-65 202-172 246C149 454 84 371 84 252V94z"/>
    <path fill="#15120f" fill-opacity="0.72" d="M95 128c45 10 96 10 161-14 65 24 116 24 161 14v126c0 107-58 183-161 224C153 437 95 361 95 254V128z"/>
    <path fill="url(#metal)" d="M102 136c42 8 91 7 154-17 63 24 112 25 154 17v118c0 101-54 172-154 212-100-40-154-111-154-212V136z"/>

    <g clip-path="url(#shield-clip)">
      <rect x="96" y="114" width="160" height="364" fill="url(#blue)"/>
      <rect x="256" y="114" width="160" height="364" fill="url(#red)"/>
      <rect x="256" y="114" width="2" height="364" fill="#080808" opacity="0.28"/>
      <rect x="96" y="114" width="320" height="364" fill="url(#pattern)"/>
      <path fill="url(#shine)" d="M88 86h344v196c-91-24-184-24-344 0V86z"/>
      <path fill="#000000" fill-opacity="0.22" d="M91 251c57 12 112 9 165-12 53 21 108 24 165 12v232H91V251z"/>
    </g>

    <path fill="url(#metal)" d="M88 94h336v94c-45-7-96-7-168 20-72-27-123-27-168-20V94z"/>
    <path fill="#ffffff" fill-opacity="0.35" d="M96 102h320v12H96z"/>
    <path fill="#15120f" fill-opacity="0.45" d="M96 178c42-5 93-2 160 22 67-24 118-27 160-22v14c-45-7-96-7-160 18-64-25-115-25-160-18v-14z"/>

    <text x="256" y="153" text-anchor="middle"
      font-family="Georgia, 'Times New Roman', serif"
      font-size="49" font-weight="900" letter-spacing="-1"
      fill="#111111" stroke="#ffffff" stroke-width="2" paint-order="stroke" filter="url(#text-shadow)">
      DISTRIBUIDORA
    </text>

    <text x="182" y="337" text-anchor="middle"
      font-family="Georgia, 'Times New Roman', serif"
      font-size="147" font-weight="700"
      fill="#f8f1df" stroke="#4e4738" stroke-width="5" paint-order="stroke" filter="url(#text-shadow)">
      8
    </text>
    <text x="331" y="337" text-anchor="middle"
      font-family="Georgia, 'Times New Roman', serif"
      font-size="147" font-weight="700"
      fill="#f8f1df" stroke="#4e4738" stroke-width="5" paint-order="stroke" filter="url(#text-shadow)">
      7
    </text>

    <path fill="none" stroke="#fff7dc" stroke-opacity="0.55" stroke-width="5" d="M84 94h344v158c0 119-65 202-172 246C149 454 84 371 84 252V94z"/>
    <path fill="none" stroke="#17130d" stroke-opacity="0.75" stroke-width="3" d="M72 80h368v172c0 129-71 221-184 268C143 473 72 381 72 252V80z"/>
  </g>
</svg>
